<svg width="329" height="144" viewBox="0 0 329 144" fill="none" xmlns="http://www.w3.org/2000/svg">
<path d="M96.8466 116.25L118.576 94.8173L128.915 56.2182L116.766 43.9004L96.8466 116.25Z" fill="white"/>
<path d="M39.4912 62.792L93.8822 117.935L114.442 43.2597L39.4912 62.792ZM71.3581 71.5664L90.9098 66.4708L85.5451 85.9495L71.3581 71.5664Z" fill="white"/>
<path d="M82.0761 33.433L43.4764 43.7789L38.8836 60.4592L111.502 41.535L82.0761 33.433Z" fill="white"/>
<path d="M75.4229 123.991L92.1654 119.627L39.4682 66.2019L47.1645 95.737L75.4229 123.991Z" fill="white"/>
<path d="M48.8438 24.2836L44.2178 41.085L77.4828 32.1689L48.8438 24.2836Z" fill="white"/>
<path d="M55.8558 129.09L72.7193 124.696L48.3657 100.346L55.8558 129.09Z" fill="white"/>
<path d="M143.115 70.6132L130.877 58.2062L121.966 91.473L143.115 70.6132Z" fill="white"/>
<path d="M75.7798 72.7842L84.3894 81.5128L87.6446 69.6915L75.7798 72.7842Z" fill="white"/>
<path d="M145.523 117L132.205 70.4545H142.955L150.659 102.795H151.045L159.545 70.4545H168.75L177.227 102.864H177.636L185.341 70.4545H196.091L182.773 117H173.182L164.318 86.5682H163.955L155.114 117H145.523ZM207.381 117.659C205.153 117.659 203.169 117.273 201.426 116.5C199.684 115.712 198.305 114.553 197.29 113.023C196.29 111.477 195.79 109.553 195.79 107.25C195.79 105.311 196.146 103.682 196.858 102.364C197.57 101.045 198.54 99.9848 199.767 99.1818C200.994 98.3788 202.388 97.7727 203.949 97.3636C205.525 96.9545 207.176 96.6667 208.903 96.5C210.934 96.2879 212.57 96.0909 213.812 95.9091C215.055 95.7121 215.956 95.4242 216.517 95.0455C217.078 94.6667 217.358 94.1061 217.358 93.3636V93.2273C217.358 91.7879 216.903 90.6742 215.994 89.8864C215.1 89.0985 213.828 88.7045 212.176 88.7045C210.434 88.7045 209.047 89.0909 208.017 89.8636C206.987 90.6212 206.305 91.5758 205.972 92.7273L197.017 92C197.472 89.8788 198.366 88.0455 199.699 86.5C201.032 84.9394 202.752 83.7424 204.858 82.9091C206.979 82.0606 209.434 81.6364 212.222 81.6364C214.161 81.6364 216.017 81.8636 217.79 82.3182C219.578 82.7727 221.161 83.4773 222.54 84.4318C223.934 85.3864 225.032 86.6136 225.835 88.1136C226.638 89.5985 227.04 91.3788 227.04 93.4545V117H217.858V112.159H217.585C217.025 113.25 216.275 114.212 215.335 115.045C214.396 115.864 213.267 116.508 211.949 116.977C210.631 117.432 209.108 117.659 207.381 117.659ZM210.153 110.977C211.578 110.977 212.835 110.697 213.926 110.136C215.017 109.561 215.873 108.788 216.494 107.818C217.116 106.848 217.426 105.75 217.426 104.523V100.818C217.123 101.015 216.706 101.197 216.176 101.364C215.661 101.515 215.078 101.659 214.426 101.795C213.775 101.917 213.123 102.03 212.472 102.136C211.82 102.227 211.229 102.311 210.699 102.386C209.563 102.553 208.57 102.818 207.722 103.182C206.873 103.545 206.214 104.038 205.744 104.659C205.275 105.265 205.04 106.023 205.04 106.932C205.04 108.25 205.517 109.258 206.472 109.955C207.441 110.636 208.669 110.977 210.153 110.977ZM244.233 70.4545V117H234.551V70.4545H244.233ZM261.67 70.4545V117H251.989V70.4545H261.67ZM285.335 117.682C281.744 117.682 278.653 116.955 276.062 115.5C273.487 114.03 271.502 111.955 270.108 109.273C268.714 106.576 268.017 103.386 268.017 99.7045C268.017 96.1136 268.714 92.9621 270.108 90.25C271.502 87.5379 273.464 85.4242 275.994 83.9091C278.54 82.3939 281.525 81.6364 284.949 81.6364C287.252 81.6364 289.396 82.0076 291.381 82.75C293.381 83.4773 295.123 84.5758 296.608 86.0455C298.108 87.5152 299.275 89.3636 300.108 91.5909C300.941 93.803 301.358 96.3939 301.358 99.3636V102.023H271.881V96.0227H292.244C292.244 94.6288 291.941 93.3939 291.335 92.3182C290.729 91.2424 289.888 90.4015 288.812 89.7955C287.752 89.1742 286.517 88.8636 285.108 88.8636C283.638 88.8636 282.335 89.2045 281.199 89.8864C280.078 90.553 279.199 91.4545 278.562 92.5909C277.926 93.7121 277.6 94.9621 277.585 96.3409V102.045C277.585 103.773 277.903 105.265 278.54 106.523C279.191 107.78 280.108 108.75 281.29 109.432C282.472 110.114 283.873 110.455 285.494 110.455C286.57 110.455 287.555 110.303 288.449 110C289.343 109.697 290.108 109.242 290.744 108.636C291.381 108.03 291.866 107.288 292.199 106.409L301.153 107C300.699 109.152 299.767 111.03 298.358 112.636C296.964 114.227 295.161 115.47 292.949 116.364C290.752 117.242 288.214 117.682 285.335 117.682ZM326.244 82.0909V89.3636H305.222V82.0909H326.244ZM309.994 73.7273H319.676V106.273C319.676 107.167 319.813 107.864 320.085 108.364C320.358 108.848 320.737 109.189 321.222 109.386C321.722 109.583 322.297 109.682 322.949 109.682C323.403 109.682 323.858 109.644 324.312 109.568C324.767 109.477 325.116 109.409 325.358 109.364L326.881 116.568C326.396 116.72 325.714 116.894 324.835 117.091C323.956 117.303 322.888 117.432 321.631 117.477C319.297 117.568 317.252 117.258 315.494 116.545C313.752 115.833 312.396 114.727 311.426 113.227C310.456 111.727 309.979 109.833 309.994 107.545V73.7273Z" fill="white"/>
</svg>
